<svg xmlns="http://www.w3.org/2000/svg" xmlns:xlink="http://www.w3.org/1999/xlink" version="1.1" x="0px" y="0px" viewBox="0 0 100 125" enable-background="new 0 0 100 100" xml:space="preserve"><circle cx="66.426" cy="87.9" r="4.026"/><circle cx="24.074" cy="87.9" r="4.026"/><path d="M80.1,39l-4.7,23.9c-0.4,2.3-2,3.9-4.1,3.9l-40.7,1.9l-5.1,8.1h44.1c2.3,0,4.2,2,4.2,4.3c0,0.8-0.7,1.7-1.5,1.7  c-0.8,0-1.5-0.8-1.5-1.6c0-0.6-0.5-1.4-1.2-1.4H25.9c-1.7,0-2.9-0.3-3.5-1.4c-0.8-1.5,0.2-2.9,0.4-3.2L28,67L16,27.1  c-0.2-0.4-1.8-1.5-6.2-1.5c0,0-1.603,0.062-1.088-1.75c0,0,0.125-1.203,2.588-1.05c6.3,0.3,7.5,2.9,7.7,3.7l1.5,5L76,34.9  C78.2,34.9,80.1,36.7,80.1,39z M77.1,38.6c-0.1-0.5-0.6-1-1.2-1l-54.5-3.2l9.4,31.4l40.4-2c1,0,1.2-1.1,1.3-1.4L77.1,38.6z"/></svg>