<svg xmlns="http://www.w3.org/2000/svg" viewBox="0 0 64 80" fill="none" x="0px" y="0px"><path d="M23 44C23 45.1046 22.1046 46 21 46H13C11.8954 46 11 45.1046 11 44C11 42.8954 11.8954 42 13 42H21C22.1046 42 23 42.8954 23 44Z" fill="black"/><path fill-rule="evenodd" clip-rule="evenodd" d="M2 18C2 12.4772 6.47715 8 12 8H52C57.5229 8 62 12.4772 62 18V46C62 51.5229 57.5228 56 52 56H12C6.47715 56 2 51.5228 2 46V18ZM6 26V46C6 49.3137 8.68629 52 12 52H52C55.3137 52 58 49.3137 58 46V26H6ZM58 22H6V18C6 14.6863 8.68629 12 12 12H52C55.3137 12 58 14.6863 58 18V22Z" fill="black"/></svg>