<svg xmlns="http://www.w3.org/2000/svg" xmlns:xlink="http://www.w3.org/1999/xlink" viewBox="0 0 100 125" version="1.1" x="0px" y="0px"><title>plus</title><desc>Created using Figma</desc><g transform="translate(-4480 0)"><clipPath id="c" clip-rule="evenodd"><path d="M 4480 0L 4580 0L 4580 100L 4480 100L 4480 0Z" fill="#000000"/></clipPath><g clip-path="url(#c)"><g><use xlink:href="#b" transform="translate(4485 5)"/></g><g><use xlink:href="#a" transform="translate(4500 49)"/></g><g><use xlink:href="#a" transform="matrix(6.12323e-17 -1 1 6.12323e-17 4529 80)"/></g></g></g><defs><path id="b" fill-rule="evenodd" d="M 45 88C 68.7482 88 88 68.7482 88 45C 88 21.2518 68.7482 2 45 2C 21.2518 2 2 21.2518 2 45C 2 68.7482 21.2518 88 45 88ZM 45 90C 69.8528 90 90 69.8528 90 45C 90 20.1472 69.8528 0 45 0C 20.1472 0 0 20.1472 0 45C 0 69.8528 20.1472 90 45 90Z"/><path id="a" d="M 0 1C 0 0.447715 0.447715 0 1 0L 59 0C 59.5523 0 60 0.447716 60 1L 60 1C 60 1.55228 59.5523 2 59 2L 1 2C 0.447715 2 0 1.55228 0 1L 0 1Z"/></defs></svg>