<svg xmlns="http://www.w3.org/2000/svg" xmlns:xlink="http://www.w3.org/1999/xlink" version="1.1" x="0px" y="0px" viewBox="0 0 100 125" style="enable-background:new 0 0 100 100;" xml:space="preserve"><path d="M50,10c-22.0561523,0-40,17.9438477-40,40s17.9438477,40,40,40s40-17.9438477,40-40S72.0561523,10,50,10z M50,88  c-20.953125,0-38-17.046875-38-38s17.046875-38,38-38s38,17.046875,38,38S70.953125,88,50,88z"/><path d="M71.84375,49H51V28.15625c0-0.5522461-0.4477539-1-1-1s-1,0.4477539-1,1V49H28.15625c-0.5522461,0-1,0.4477539-1,1  s0.4477539,1,1,1H49v20.84375c0,0.5522461,0.4477539,1,1,1s1-0.4477539,1-1V51h20.84375c0.5522461,0,1-0.4477539,1-1  S72.3959961,49,71.84375,49z"/></svg>