<svg xmlns="http://www.w3.org/2000/svg" xmlns:xlink="http://www.w3.org/1999/xlink" xmlns:sketch="http://www.bohemiancoding.com/sketch/ns" viewBox="0 0 54 67.5" version="1.1" x="0px" y="0px"><g stroke="none" stroke-width="1" fill="none" fill-rule="evenodd" sketch:type="MSPage"><path d="M27,54 C12.112,54 0,41.888 0,27 C0,12.112 12.112,0 27,0 C41.888,0 54,12.112 54,27 C54,41.888 41.888,54 27,54 L27,54 Z M27,2 C13.215,2 2,13.215 2,27 C2,40.785 13.215,52 27,52 C40.785,52 52,40.785 52,27 C52,13.215 40.785,2 27,2 L27,2 Z" sketch:type="MSShapeGroup"/><path d="M37,31 L17,31 C14.794,31 13,29.206 13,27 C13,24.794 14.794,23 17,23 L37,23 C39.206,23 41,24.794 41,27 C41,29.206 39.206,31 37,31 L37,31 Z M17,25 C15.897,25 15,25.897 15,27 C15,28.103 15.897,29 17,29 L37,29 C38.103,29 39,28.103 39,27 C39,25.897 38.103,25 37,25 L17,25 L17,25 Z" sketch:type="MSShapeGroup"/></g></svg>