<svg xmlns="http://www.w3.org/2000/svg" data-name="Layer 1" viewBox="0 0 32 40" x="0px" y="0px"><path d="M24.57,2.16H8.26c-.87,0-1.58,.71-1.58,1.57v5.66c0,.87,.71,1.58,1.58,1.58h1.57v1.67l-3.97,4.24v12.96H15.9v-3.63c.85-.39,2.8-1.59,3.01-4.59h4.08V10.97h1.58c.87,0,1.57-.71,1.57-1.58V3.73c0-.86-.7-1.57-1.57-1.57ZM8.26,9.89c-.28,0-.5-.22-.5-.5v-2.5c0-.28,.22-.5,.5-.5h1.57v3.5h-1.57Zm13.65,10.65h-4.06v.54c0,3.45-2.53,4.21-2.63,4.24l-.4,.11v3.33H6.93v-11.45l2.9-3.09v2.72l-.69,.68,.75,.77,4.4-4.3c.49-.48,1.29-.48,1.78,0,.5,.49,.51,1.3,.02,1.8l-3.79,3.9,.14,.34c.04,.1,1.06,2.52-1.1,4.72l.77,.76c2.19-2.23,1.72-4.67,1.44-5.57l3.27-3.35v2.52h3.18V6.39h1.91v14.15Zm-11-4.66V6.39h5.91v6.92c-.91-.88-2.38-.88-3.28,.01l-2.63,2.56Zm14.16-6.49c0,.28-.23,.5-.5,.5h-1.58v-3.5h1.58c.27,0,.5,.22,.5,.5v2.5Zm0-3.99c-.16-.05-.33-.09-.5-.09H8.26c-.18,0-.35,.04-.5,.09v-1.67c0-.27,.22-.49,.5-.49H24.57c.27,0,.5,.22,.5,.49v1.67Z"/><text x="0" y="47" fill="#000000" font-size="5px" font-weight="bold" font-family="'Helvetica Neue', Helvetica, Arial-Unicode, Arial, Sans-serif">Created by IGraphics</text><text x="0" y="52" fill="#000000" font-size="5px" font-weight="bold" font-family="'Helvetica Neue', Helvetica, Arial-Unicode, Arial, Sans-serif">from the Noun Project</text></svg>