<svg xmlns="http://www.w3.org/2000/svg" data-name="Layer 1" viewBox="0 0 95 118.75" x="0px" y="0px"><path d="M47.5,20.291l12.622,8.252,9.906,6.475H24.972l9.907-6.475L47.5,20.291Zm0,24.306A10.431,10.431,0,1,1,37.07,55.028,10.431,10.431,0,0,1,47.5,44.6ZM46.613,55.8v3.406a1.772,1.772,0,0,1-.878-1.527.888.888,0,1,0-1.775,0,3.541,3.541,0,0,0,2.653,3.428v.517a.888.888,0,0,0,1.775,0V61.11a3.541,3.541,0,0,0,0-6.856V50.848a1.783,1.783,0,0,1,.36.278,1.762,1.762,0,0,1,.518,1.25.888.888,0,0,0,1.775,0,3.541,3.541,0,0,0-2.653-3.428v-.519a.888.888,0,0,0-1.775,0v.519a3.541,3.541,0,0,0,0,6.855Zm0-4.955a1.817,1.817,0,0,0-.361.278,1.767,1.767,0,0,0,0,2.5,1.785,1.785,0,0,0,.361.279V50.848Zm1.775,8.361a1.718,1.718,0,0,0,.36-.279,1.764,1.764,0,0,0,0-2.5,1.713,1.713,0,0,0-.36-.278v3.054ZM13.644,73.247H81.356v4.616H13.644V73.247Zm6.01-4.616H75.346v2.841H19.654V68.631ZM61.21,64.286H72.654v2.57H61.21v-2.57Zm8.455-16.759V62.513H64.2V47.527Zm2.989-4.342v2.567H61.21V43.185Zm-48.608,21.1H35.491v2.57H24.046v-2.57ZM32.5,47.527V62.513H27.035V47.527Zm2.989-4.342v2.567H24.046V43.185ZM19.654,36.793H75.346V41.41H19.654Z" style="" fill-rule="evenodd"/></svg>