<svg xmlns="http://www.w3.org/2000/svg" xmlns:xlink="http://www.w3.org/1999/xlink" viewBox="0 0 100 125" version="1.1" x="0px" y="0px"><title>abort</title><desc>Created using Figma</desc><g transform="translate(-5040 0)"><clipPath id="b" clip-rule="evenodd"><path d="M 5040 0L 5140 0L 5140 100L 5040 100L 5040 0Z" fill="#000000"/></clipPath><g clip-path="url(#b)"><g><use xlink:href="#a" transform="matrix(0.707107 -0.707107 0.707107 0.707107 5068.08 70.5061)"/></g><g><use xlink:href="#a" transform="matrix(-0.707107 -0.707107 0.707107 -0.707107 5110.51 71.9203)"/></g></g></g><defs><path id="a" d="M 0 1C 0 0.447715 0.447715 0 1 0L 59 0C 59.5523 0 60 0.447716 60 1L 60 1C 60 1.55228 59.5523 2 59 2L 1 2C 0.447715 2 0 1.55228 0 1L 0 1Z"/></defs></svg>