<svg xmlns="http://www.w3.org/2000/svg" xmlns:xlink="http://www.w3.org/1999/xlink" version="1.1" x="0px" y="0px" viewBox="0 0 60 75" style="enable-background:new 0 0 60 60;" xml:space="preserve"><g><path d="M50,40.5H20c-0.437,0-0.823-0.284-0.954-0.7L8.266,5.5H1c-0.552,0-1-0.448-1-1s0.448-1,1-1h8   c0.437,0,0.823,0.284,0.954,0.7l10.78,34.3H50c0.552,0,1,0.448,1,1S50.552,40.5,50,40.5z"/><path d="M53,34.5H18c-0.552,0-1-0.448-1-1s0.448-1,1-1h34.219l5.5-22H26c-0.552,0-1-0.448-1-1s0.448-1,1-1h33   c0.308,0,0.599,0.142,0.788,0.385s0.257,0.559,0.182,0.858l-6,24C53.859,34.187,53.459,34.5,53,34.5z"/><path d="M26,56.5c-3.86,0-7-3.14-7-7s3.14-7,7-7s7,3.14,7,7S29.86,56.5,26,56.5z M26,44.5c-2.757,0-5,2.243-5,5s2.243,5,5,5   s5-2.243,5-5S28.757,44.5,26,44.5z"/><path d="M44,56.5c-3.86,0-7-3.14-7-7s3.14-7,7-7s7,3.14,7,7S47.86,56.5,44,56.5z M44,44.5c-2.757,0-5,2.243-5,5s2.243,5,5,5   s5-2.243,5-5S46.757,44.5,44,44.5z"/><path d="M21,10.5h-4c-0.552,0-1-0.448-1-1s0.448-1,1-1h4c0.552,0,1,0.448,1,1S21.552,10.5,21,10.5z"/></g><text x="0" y="75" fill="#000000" font-size="5px" font-weight="bold" font-family="'Helvetica Neue', Helvetica, Arial-Unicode, Arial, Sans-serif">Created by Norbert Kucsera</text><text x="0" y="80" fill="#000000" font-size="5px" font-weight="bold" font-family="'Helvetica Neue', Helvetica, Arial-Unicode, Arial, Sans-serif">from the Noun Project</text></svg>