<svg xmlns="http://www.w3.org/2000/svg" xmlns:xlink="http://www.w3.org/1999/xlink" version="1.1" x="0px" y="0px" viewBox="0 0 100 125" style="enable-background:new 0 0 100 100;" xml:space="preserve"><path d="M38,69h40c0.85,0,1.607-0.537,1.888-1.339l14-40c0.214-0.612,0.118-1.29-0.257-1.818S92.648,25,92,25  h-9.09c0.055,0.66,0.09,1.326,0.09,2c0,13.233-10.767,24-24,24S35,40.233,35,27c0-0.674,0.035-1.34,0.09-2h-7.966l-4.292-12.019  C21.98,10.6,19.71,9,17.181,9H8c-1.104,0-2,0.896-2,2s0.896,2,2,2h9.181c0.843,0,1.6,0.533,1.884,1.327l18.112,50.715  C33.151,65.456,30,68.867,30,73c0,4.411,3.589,8,8,8h2.082C39.398,82.178,39,83.542,39,85c0,4.411,3.589,8,8,8s8-3.589,8-8  c0-1.458-0.398-2.822-1.082-4h12.165C65.398,82.178,65,83.542,65,85c0,4.411,3.589,8,8,8s8-3.589,8-8s-3.589-8-8-8H38  c-2.206,0-4-1.794-4-4S35.794,69,38,69z M51,85c0,2.206-1.794,4-4,4s-4-1.794-4-4s1.794-4,4-4S51,82.794,51,85z M77,85  c0,2.206-1.794,4-4,4s-4-1.794-4-4s1.794-4,4-4S77,82.794,77,85z M59,7c-11.028,0-20,8.972-20,20s8.972,20,20,20  c11.028,0,20-8.972,20-20S70.028,7,59,7z M65,29h-4v4c0,1.104-0.896,2-2,2s-2-0.896-2-2v-4h-4c-1.104,0-2-0.896-2-2s0.896-2,2-2h4  v-4c0-1.104,0.896-2,2-2s2,0.896,2,2v4h4c1.104,0,2,0.896,2,2S66.104,29,65,29z"/></svg>