<svg xmlns="http://www.w3.org/2000/svg" data-name="Layer 1" viewBox="0 0 64 80" x="0px" y="0px"><path d="m54,51H10c-3.86,0-7-3.14-7-7v-24c0-1.9.78-3.74,2.15-5.04,1.29-1.26,3.01-1.96,4.85-1.96h44c3.86,0,7,3.14,7,7v24c0,3.86-3.14,7-7,7ZM10,15c-1.31,0-2.54.5-3.46,1.4-.98.93-1.54,2.24-1.54,3.6v24c0,2.76,2.24,5,5,5h44c2.76,0,5-2.24,5-5v-24c0-2.76-2.24-5-5-5H10Z"/><path d="m60,34.55s-.09,0-.13,0c-.55-.07-.93-.57-.86-1.12l2.31-17.86c.35-2.73-1.59-5.24-4.32-5.6L13.36,4.31c-2.73-.35-5.24,1.59-5.6,4.32l-.93,7.19c-.07.55-.58.93-1.12.86-.55-.07-.93-.57-.86-1.12l.93-7.19c.5-3.82,4.01-6.53,7.84-6.04l43.64,5.65c3.82.5,6.53,4.02,6.04,7.84l-2.31,17.86c-.06.5-.5.87-.99.87Z"/><path d="m60,28H4c-.55,0-1-.45-1-1v-6c0-.55.45-1,1-1h56c.55,0,1,.45,1,1v6c0,.55-.45,1-1,1Zm-55-2h54v-4H5v4Z"/><path d="m40,46c-3.31,0-6-2.69-6-6,0-1.6.62-3.1,1.75-4.24,1.15-1.14,2.66-1.76,4.25-1.76s3.07.61,4.2,1.71c0,0,.02.02.03.03,0,0,0,0,0,0,1.15,1.16,1.77,2.67,1.77,4.26s-.62,3.1-1.75,4.24c0,0-.01.01-.02.02,0,.01-.02.02-.03.03-1.12,1.1-2.62,1.71-4.2,1.71Zm0-10c-1.07,0-2.07.42-2.84,1.17-.75.76-1.16,1.76-1.16,2.83,0,2.21,1.79,4,4,4,1.05,0,2.04-.4,2.79-1.12.02-.02.04-.04.06-.06.74-.76,1.15-1.76,1.15-2.81s-.41-2.05-1.15-2.82c-.02-.02-.04-.04-.06-.06-.75-.72-1.74-1.12-2.79-1.12Zm3.54,7.54h0,0Z"/><path d="m47,46c-1.58,0-3.07-.61-4.2-1.71-.31-.3-.39-.77-.2-1.15.06-.11.15-.23.25-.33.74-.76,1.15-1.76,1.15-2.81s-.41-2.05-1.15-2.82c-.1-.09-.19-.21-.25-.33-.19-.39-.11-.85.2-1.15,1.12-1.1,2.62-1.71,4.2-1.71s3.1.62,4.24,1.75c1.14,1.15,1.76,2.66,1.76,4.25s-.62,3.1-1.75,4.24c-1.15,1.14-2.66,1.76-4.25,1.76Zm-2.07-2.57c1.5.91,3.61.68,4.91-.6.75-.76,1.16-1.76,1.16-2.83s-.42-2.07-1.17-2.84c-1.28-1.27-3.4-1.5-4.9-.59.7,1.01,1.07,2.19,1.07,3.43s-.38,2.43-1.07,3.43Zm-1.43-7.01h0,0Z"/><path d="m20,45h-8c-.55,0-1-.45-1-1v-8c0-.55.45-1,1-1h8c.55,0,1,.45,1,1v8c0,.55-.45,1-1,1Zm-7-2h6v-6h-6v6Z"/><text x="0" y="79" fill="#000000" font-size="5px" font-weight="bold" font-family="'Helvetica Neue', Helvetica, Arial-Unicode, Arial, Sans-serif">Created by Ivanda arief budiarto</text><text x="0" y="84" fill="#000000" font-size="5px" font-weight="bold" font-family="'Helvetica Neue', Helvetica, Arial-Unicode, Arial, Sans-serif">from the Noun Project</text></svg>